<svg width="64" height="54" viewBox="0 0 64 54" fill="none" xmlns="http://www.w3.org/2000/svg">
<g clip-path="url(#clip0)">
<path d="M52.9069 48.5006V53.0691C52.9069 53.5834 52.4209 54 51.8208 54H12.1791C11.579 54 11.093 53.5834 11.093 53.0691V48.5006C11.093 43.7075 15.626 39.8244 21.2193 39.8232C23.196 39.8221 24.9364 38.9505 25.9383 37.6286C26.9448 36.3027 26.8411 35.1498 26.8411 34.2179L26.8615 34.1749C21.9877 32.4457 18.5598 28.3298 18.5598 23.5275V23.1632C16.6245 23.1632 15.1658 21.8524 15.1658 20.3076V15.4715C15.1223 13.7877 15.2119 7.84955 20.216 3.71509C26.0347 -1.09196 35.2555 -0.698647 41.9348 1.87303C42.1521 1.95681 42.1453 2.22329 41.9253 2.30125L40.1835 2.91566C39.9229 3.00759 39.9785 3.3369 40.2582 3.3625L41.104 3.44047C45.1537 3.81167 48.9156 5.69679 51.2479 8.834C51.3104 8.91895 51.2927 9.04811 51.2126 9.12142C49.7736 10.4259 48.9699 12.1574 48.9699 13.9576V20.3076C48.9699 21.8844 47.4779 23.1632 45.6384 23.1632H45.4401V23.5275C45.4401 28.3298 42.0122 32.4457 37.1385 34.1749L37.1588 34.2179C37.1588 35.1229 37.0465 36.2916 38.0616 37.6286C39.0635 38.9505 40.804 39.8221 42.7806 39.8232C48.3739 39.8244 52.9069 43.7075 52.9069 48.5006Z" fill="#FFDFBA"/>
<path d="M52.9069 48.5006V53.0691C52.9069 53.5832 52.4206 54 51.8208 54H12.1791C11.5793 54 11.093 53.5832 11.093 53.0691V48.5006C11.093 43.7075 15.6267 39.825 21.2186 39.8232C23.1958 39.8226 24.9367 38.95 25.9383 37.6286C29.4346 40.1888 34.5632 40.1904 38.0616 37.6286C39.0631 38.95 40.8041 39.8226 42.7813 39.8232C48.3732 39.825 52.9069 43.7075 52.9069 48.5006Z" fill="#FE4F60"/>
<path d="M51.2474 8.83457C51.3104 8.9194 51.2928 9.04787 51.2123 9.12095C49.7736 10.4263 48.9699 12.1573 48.9699 13.9576V20.3076C48.9699 21.7491 47.7029 23.1632 45.4402 23.1632V15.9753C45.4402 12.8905 42.5227 10.3898 38.9237 10.3898H25.0763C21.4773 10.3898 18.5598 12.8905 18.5598 15.9753V23.1632C16.6246 23.1632 15.1658 21.8524 15.1658 20.3076V15.4715C15.1224 13.7877 15.212 7.84954 20.2161 3.71508C26.0343 -1.09208 35.2561 -0.698537 41.9343 1.87337C42.1516 1.95704 42.1459 2.22363 41.9255 2.30136L40.1836 2.916C39.9232 3.00793 39.978 3.33689 40.258 3.36261L41.104 3.44046C45.1544 3.81132 48.9154 5.69643 51.2474 8.83457Z" fill="#42434D"/>
<path d="M45.4402 23.5274C45.4402 29.8922 39.4196 35.0476 32 35.0476C25.0095 35.0476 18.5598 30.3894 18.5598 23.1632V15.9753C18.5598 12.8905 21.4773 10.3898 25.0763 10.3898H38.9238C42.5227 10.3898 45.4402 12.8905 45.4402 15.9753V23.5274Z" fill="#FFEBD2"/>
<path d="M42.9964 52.0218H39.7382C39.1384 52.0218 38.6521 51.605 38.6521 51.0909C38.6521 50.5768 39.1384 50.1599 39.7382 50.1599H42.9964C43.5962 50.1599 44.0825 50.5768 44.0825 51.0909C44.0825 51.605 43.5964 52.0218 42.9964 52.0218Z" fill="white"/>
<path d="M28.9569 30.9664C31.1666 32.1514 29.4241 35.0573 27.0052 34.2251C22.0318 32.5141 18.5598 28.3598 18.5598 23.5274V15.9753C18.5598 14.8019 18.9821 13.7129 19.7032 12.8139C20.5875 11.7116 22.6326 12.1986 22.6326 13.648V21.2001C22.6326 25.4486 25.2381 28.9721 28.9569 30.9664Z" fill="#FFF3E4"/>
<path d="M37.3123 36.1286C33.9676 37.3287 30.2919 37.4218 26.6877 36.1286C26.8718 35.474 26.8412 35.0499 26.8412 34.2179L26.8615 34.1749C30.1309 35.3381 33.8628 35.3404 37.1385 34.1749L37.1589 34.2179C37.1589 35.0503 37.1282 35.4742 37.3123 36.1286Z" fill="#FFD6A6"/>
<path d="M26.6893 42.6343C26.1873 42.7696 25.6489 42.8442 25.0716 42.8485C19.4653 42.8908 14.8943 46.6905 14.8943 51.4962V52.3709C14.8943 53.2706 14.0433 54 12.9936 54H12.1791C11.5793 54 11.093 53.5832 11.093 53.0691V48.5006C11.093 43.7074 15.6267 39.825 21.2186 39.8232C23.1958 39.8226 24.9367 38.95 25.9383 37.6286C26.342 37.9241 26.7743 38.1898 27.2296 38.4224C29.2325 39.4454 28.9133 42.0349 26.6893 42.6343Z" fill="#FF6D7A"/>
<path d="M37.3106 42.6343C37.8127 42.7696 38.3511 42.8442 38.9283 42.8485C44.5347 42.8908 49.1057 46.6905 49.1057 51.4962V52.3709C49.1057 53.2706 49.9566 54 51.0063 54H51.8209C52.4207 54 52.907 53.5832 52.907 53.0691V48.5006C52.907 43.7074 48.3733 39.825 42.7813 39.8232C40.8041 39.8226 39.0633 38.95 38.0617 37.6286C37.6579 37.9241 37.2256 38.1898 36.7703 38.4224C34.7676 39.4454 35.0866 42.0349 37.3106 42.6343Z" fill="#E84857"/>
<path d="M41.9254 2.30125C40.3291 2.86434 40.1016 2.9885 39.5485 2.91496C30.6326 1.73036 22.8102 4.89235 20.1536 12.3156V12.3168C19.1599 13.2966 18.5598 14.5766 18.5598 15.9753V20.3417C18.5598 22.2254 15.1658 22.3566 15.1658 20.3076V15.4715C15.1224 13.7877 15.212 7.84955 20.2161 3.71509C26.0347 -1.09196 35.2555 -0.698647 41.9349 1.87303C42.1521 1.95681 42.1453 2.22328 41.9254 2.30125Z" fill="#4D4E59"/>
</g>
<defs>
<clipPath id="clip0">
<rect x="0.5" width="63" height="54" rx="7" fill="white"/>
</clipPath>
</defs>
</svg>
