<svg width="11" height="13" viewBox="0 0 11 13" fill="none" xmlns="http://www.w3.org/2000/svg">
<path d="M4.95703 7.9375L5.00977 9.15918C5.00977 9.87988 4.82812 10.4541 4.46484 10.8818H10.2041V13H0.896484V10.8818H1.70508C2.12695 10.7764 2.33789 10.252 2.33789 9.30859L2.29395 7.9375H0.870117V5.86328H2.22363L2.16211 3.86816C2.16211 2.68457 2.52246 1.75 3.24316 1.06445C3.96973 0.378906 4.93945 0.0361328 6.15234 0.0361328C7.39453 0.0361328 8.37012 0.367188 9.0791 1.0293C9.78809 1.68555 10.1426 2.57617 10.1426 3.70117H7.62012C7.62012 3.20312 7.49121 2.82227 7.2334 2.55859C6.98145 2.29492 6.61816 2.16309 6.14355 2.16309C5.75684 2.16309 5.43457 2.30664 5.17676 2.59375C4.9248 2.88086 4.79883 3.30566 4.79883 3.86816L4.87793 5.86328H7.59375V7.9375H4.95703Z" fill="#D9D2D1"/>
</svg>
